<svg width="222" height="222" viewBox="0 0 222 222" fill="none" xmlns="http://www.w3.org/2000/svg">
    <rect width="221.366" height="221.366" transform="translate(0.633789)" fill="none" style="mix-blend-mode:multiply"/>
    <path d="M194.329 41.5059H28.3041C24.6348 41.5059 21.1157 42.9635 18.521 45.5581C15.9264 48.1528 14.4688 51.6719 14.4688 55.3412V166.024C14.4688 169.694 15.9264 173.213 18.521 175.807C21.1157 178.402 24.6348 179.86 28.3041 179.86H194.329C197.998 179.86 201.517 178.402 204.112 175.807C206.706 173.213 208.164 169.694 208.164 166.024V55.3412C208.164 51.6719 206.706 48.1528 204.112 45.5581C201.517 42.9635 197.998 41.5059 194.329 41.5059ZM179.11 55.3412L111.316 102.243L43.523 55.3412H179.11ZM28.3041 166.024V61.6363L107.373 116.355C108.531 117.159 109.907 117.589 111.316 117.589C112.726 117.589 114.101 117.159 115.259 116.355L194.329 61.6363V166.024H28.3041Z" fill="#222222" stroke="#F7F6F6" stroke-width="8"/>
</svg>
